<svg width="250" height="226" viewBox="0 0 250 226" fill="none" xmlns="http://www.w3.org/2000/svg">
<path d="M242.645 201H243.885L246.031 206.722L248.186 201H249.426V207.809H248.567V202.144H248.548L246.422 207.809H245.649L243.523 202.144H243.504V207.809H242.645V201Z" fill="#E41E2D"/>
<path d="M238.27 201.763H236V201H241.445V201.763H239.176V207.809H238.27V201.763Z" fill="#E41E2D"/>
<path d="M119.2 0.00018803C168.3 0.100188 208 39.9002 208 89.0002C207.9 138.1 168.1 177.8 119 177.7C69.9 177.6 30.2 137.8 30.2 88.7002C30.3 39.7002 70.1 -0.099812 119.2 0.00018803Z" fill="#E41E2D"/>
<path d="M186.9 136C186.9 138.9 184.7 140.9 182.1 140.9C179.3 140.9 177.3 138.8 177.3 136C177.3 133.1 179.5 131.1 182.1 131.1C184.7 131.1 186.9 133.1 186.9 136ZM185.9 136C185.9 133.6 184.3 132 182.2 132C180.1 132 178.5 133.6 178.5 136C178.5 138.2 179.9 140 182.2 140C184.2 140 185.9 138.4 185.9 136Z" fill="white"/>
<path d="M181.2 136.5V138.8H180.3V133.4H182.3C183.6 133.4 184.3 133.9 184.3 134.9C184.3 135.9 183.7 136.3 182.9 136.4L184.4 138.8H183.4L182 136.5H181.2ZM181.2 135.7H182.2C182.9 135.7 183.4 135.6 183.4 134.9C183.4 134.3 182.8 134.2 182.2 134.2H181.1V135.7H181.2Z" fill="white"/>
<path d="M139.5 100.8V98.3002C139.5 78.1002 134.9 70.7002 129.1 70.7002C123.3 70.7002 118.7 78.2002 118.7 98.3002C118.7 118.5 123.3 125.9 129.1 125.9C133.9 125.9 138 120.6 139.2 106.9L132.2 106C131.9 114.3 131.1 117.6 129.2 117.6C126.9 117.6 126.2 113 126.2 100.8H132.3H139.5ZM129.2 78.9002C131.4 78.9002 132.2 83.2002 132.3 94.4002H126.2C126.2 83.2002 126.9 78.9002 129.2 78.9002Z" fill="white"/>
<path d="M163.1 100.8V98.3002C163.1 78.1002 158.5 70.7002 152.7 70.7002C147 70.7002 142.3 78.2002 142.3 98.3002C142.3 118.5 146.9 125.9 152.7 125.9C157.5 125.9 161.6 120.6 162.8 106.9L155.8 106C155.5 114.3 154.7 117.6 152.8 117.6C150.5 117.6 149.8 113 149.8 100.8H155.9H163.1ZM152.8 78.9002C155 78.9002 155.8 83.2002 155.9 94.4002H149.8C149.8 83.2002 150.6 78.9002 152.8 78.9002Z" fill="white"/>
<path d="M60.3999 94.0002C60.8999 94.0002 61.7999 94.1002 62.3999 94.1002C76.8999 92.9002 84.7999 80.5002 84.7999 66.7002C84.7999 53.2002 77.2999 42.5002 63.0999 42.3002C62.1999 42.3002 61.3999 42.4002 60.4999 42.4002L60.3999 94.0002ZM51.5999 33.4002C53.6999 33.1002 56.4999 33.0002 58.5999 33.1002C77.1999 33.3002 92.0999 42.9002 92.8999 64.5002C93.4999 80.3002 87.9999 92.8002 73.8999 99.9002L115.8 150.3H106.5L60.3999 97.7002L60.2999 144.2H51.3999L51.5999 33.4002Z" fill="white"/>
<path d="M103.3 125.3L103.4 82.3001C103.4 82.3001 103.4 78.9001 106 78.9001C108.7 78.9001 108.7 82.3001 108.7 82.3001L108.6 125.3H115.9L116 82.3001V77.9001C116 73.3001 112.7 70.1001 108.5 70.6001C106.5 70.9001 104.6 72.0001 103.3 73.6001L103.4 2.90015C100.9 3.30015 98.4999 3.90015 96.0999 4.60015L95.8999 125.3H103.3Z" fill="white"/>
<path d="M191.9 70.7002C189.2 70.7002 186.9 72.0002 185.7 73.9002C184.5 72.0002 182.2 70.7002 179.6 70.7002C177 70.7002 174.7 71.7002 173.5 73.6002V73.5002C172.9 70.6002 170.1 70.5002 166.7 71.0002C166.5 71.0002 166.3 71.1002 166.1 71.1002L166 125.4H173.3L173.4 82.4002C173.4 82.4002 173.4 79.0002 176 79.0002C178.7 79.0002 178.7 82.4002 178.7 82.4002L178.6 125.4H185.9L186 82.4002C186 82.4002 186 79.0002 188.6 79.0002C191.3 79.0002 191.3 82.4002 191.3 82.4002L191.2 125.4H198.5L198.6 82.4002V78.0002V76.7002C198.8 73.5002 195.7 70.7002 191.9 70.7002Z" fill="white"/>
<path d="M6.7 220.6C5.6 220.6 4.6 220.4 3.8 220.1C3 219.8 2.3 219.2 1.7 218.6C1.1 218 0.7 217.2 0.5 216.3C0.2 215.4 0 214.4 0 213.4C0 212.3 0.2 211.4 0.5 210.5C0.8 209.6 1.3 208.9 1.9 208.2C2.5 207.6 3.2 207 4 206.7C4.8 206.4 5.7 206.2 6.6 206.2C7.8 206.2 8.9 206.5 9.7 207C10.5 207.5 11.2 208.2 11.7 208.9C12.2 209.7 12.5 210.5 12.7 211.5C12.9 212.4 12.9 213.3 12.9 214.2H2.4C2.4 214.8 2.5 215.4 2.6 215.9C2.8 216.4 3 216.9 3.4 217.4C3.7 217.8 4.2 218.2 4.8 218.4C5.4 218.6 6 218.8 6.8 218.8C7.8 218.8 8.6 218.6 9.2 218.1C9.8 217.6 10.2 217 10.4 216.1H12.7C12.4 217.7 11.7 218.8 10.7 219.6C9.5 220.2 8.3 220.6 6.7 220.6ZM9.2 209.2C8.9 208.9 8.4 208.6 8 208.4C7.5 208.2 7 208.1 6.4 208.1C5.8 208.1 5.3 208.2 4.8 208.4C4.3 208.6 3.9 208.9 3.6 209.2C3.3 209.5 3 210 2.8 210.5C2.6 211 2.5 211.5 2.5 212H10.5C10.5 211.5 10.3 210.9 10.2 210.5C9.8 210 9.6 209.6 9.2 209.2Z" fill="black"/>
<path d="M18.3 208.5C19.3 206.8 20.8 206 22.9 206C23.8 206 24.6 206.1 25.2 206.4C25.8 206.6 26.3 207 26.7 207.4C27.1 207.9 27.3 208.4 27.5 209C27.7 209.6 27.7 210.3 27.7 211V220.1H25.4V210.7C25.4 209.8 25.2 209.2 24.6 208.7C24.1 208.2 23.4 207.9 22.5 207.9C21.8 207.9 21.2 208 20.7 208.2C20.2 208.4 19.8 208.7 19.4 209.1C19.1 209.5 18.8 210 18.6 210.5C18.4 211 18.4 211.6 18.4 212.2V220.1H16.1V206.2H18.3V208.5Z" fill="black"/>
<path d="M37.9 225.9C37.3 225.9 36.6 225.8 35.9 225.7C35.2 225.6 34.6 225.3 34.1 225C33.5 224.7 33.1 224.2 32.7 223.7C32.4 223.2 32.1 222.5 32.1 221.8H34.4C34.4 222.2 34.6 222.6 34.8 222.9C35 223.2 35.3 223.4 35.7 223.6C36 223.8 36.4 223.9 36.8 224C37.2 224.1 37.6 224.1 38 224.1C38.8 224.1 39.4 224 39.9 223.7C40.4 223.4 40.8 223.1 41.2 222.6C41.5 222.1 41.8 221.6 42 220.9C42.1 220.3 42.2 219.6 42.2 218.8V217.9H42.1C41.7 218.8 41.1 219.4 40.3 219.8C39.5 220.2 38.6 220.4 37.7 220.4C36.7 220.4 35.8 220.2 35 219.8C34.2 219.4 33.6 218.9 33.1 218.3C32.6 217.7 32.2 216.9 31.9 216.1C31.6 215.2 31.5 214.3 31.5 213.4C31.5 212.6 31.6 211.7 31.8 210.9C32 210 32.4 209.2 32.9 208.5C33.4 207.8 34.1 207.2 34.9 206.8C35.7 206.3 36.7 206.1 37.9 206.1C38.8 206.1 39.6 206.3 40.3 206.7C41 207.1 41.6 207.6 42 208.4V206.4H44.2V219.1C44.2 221.4 43.7 223.1 42.6 224.2C41.7 225.3 40.1 225.9 37.9 225.9ZM41.1 216.7C41.4 216.2 41.7 215.6 41.8 215C41.9 214.4 42 213.7 42 213.1C42 212.5 41.9 211.9 41.8 211.3C41.7 210.7 41.4 210.2 41.1 209.7C40.8 209.2 40.4 208.8 39.9 208.5C39.4 208.2 38.8 208.1 38.1 208.1C37.4 208.1 36.7 208.2 36.2 208.5C35.7 208.8 35.3 209.1 34.9 209.6C34.6 210.1 34.3 210.6 34.2 211.2C34 211.8 34 212.4 34 213.1C34 213.7 34.1 214.4 34.2 215C34.3 215.6 34.5 216.2 34.8 216.7C35.1 217.2 35.5 217.6 36 217.9C36.5 218.2 37.1 218.4 37.9 218.4C38.7 218.4 39.3 218.2 39.8 217.9C40.4 217.6 40.8 217.2 41.1 216.7Z" fill="black"/>
<path d="M49 201H51.3V203.8H49V201ZM51.3 220.2H49V206.3H51.3V220.2Z" fill="black"/>
<path d="M58.1 208.5C59.1 206.8 60.6 206 62.7 206C63.6 206 64.4 206.1 65 206.4C65.6 206.6 66.1 207 66.5 207.4C66.9 207.9 67.1 208.4 67.3 209C67.5 209.6 67.5 210.3 67.5 211V220.1H65.2V210.7C65.2 209.8 65 209.2 64.4 208.7C63.9 208.2 63.2 207.9 62.3 207.9C61.6 207.9 61 208 60.5 208.2C60 208.4 59.6 208.7 59.2 209.1C58.9 209.5 58.6 210 58.4 210.5C58.2 211 58.2 211.6 58.2 212.2V220.1H56V206.2H58.2V208.5H58.1Z" fill="black"/>
<path d="M78 220.6C76.9 220.6 75.9 220.4 75.1 220.1C74.3 219.8 73.6 219.2 73 218.6C72.4 218 72 217.2 71.8 216.3C71.5 215.4 71.3 214.4 71.3 213.4C71.3 212.3 71.5 211.4 71.8 210.5C72.1 209.6 72.6 208.9 73.2 208.2C73.8 207.6 74.5 207 75.3 206.7C76.1 206.4 77 206.2 77.9 206.2C79.1 206.2 80.2 206.5 81 207C81.8 207.5 82.5 208.2 83 208.9C83.5 209.7 83.8 210.5 84 211.5C84.2 212.4 84.2 213.3 84.2 214.2H73.8C73.8 214.8 73.9 215.4 74 215.9C74.2 216.4 74.4 216.9 74.8 217.4C75.1 217.8 75.6 218.2 76.2 218.4C76.8 218.6 77.4 218.8 78.2 218.8C79.2 218.8 80 218.6 80.6 218.1C81.2 217.6 81.6 217 81.8 216.1H84.1C83.8 217.7 83.1 218.8 82.1 219.6C80.9 220.2 79.6 220.6 78 220.6ZM80.6 209.2C80.3 208.9 79.8 208.6 79.4 208.4C78.9 208.2 78.4 208.1 77.8 208.1C77.2 208.1 76.7 208.2 76.2 208.4C75.7 208.6 75.3 208.9 75 209.2C74.7 209.5 74.4 210 74.2 210.5C74 211 73.9 211.5 73.9 212H81.9C81.9 211.5 81.7 210.9 81.6 210.5C81.2 210 80.9 209.6 80.6 209.2Z" fill="black"/>
<path d="M93.9 220.6C92.8 220.6 91.8 220.4 91 220.1C90.2 219.8 89.5 219.2 88.9 218.6C88.3 218 87.9 217.2 87.7 216.3C87.4 215.4 87.2 214.4 87.2 213.4C87.2 212.3 87.4 211.4 87.7 210.5C88 209.6 88.5 208.9 89.1 208.2C89.7 207.6 90.4 207 91.2 206.7C92 206.4 92.9 206.2 93.8 206.2C95 206.2 96.1 206.5 96.9 207C97.7 207.5 98.4 208.2 98.9 208.9C99.4 209.7 99.7 210.5 99.9 211.5C100.1 212.4 100.1 213.3 100.1 214.2H89.6C89.6 214.8 89.7 215.4 89.8 215.9C90 216.4 90.2 216.9 90.6 217.4C90.9 217.8 91.4 218.2 92 218.4C92.6 218.6 93.2 218.8 94 218.8C95 218.8 95.8 218.6 96.4 218.1C97 217.6 97.4 217 97.6 216.1H99.9C99.6 217.7 98.9 218.8 97.9 219.6C96.7 220.2 95.5 220.6 93.9 220.6ZM96.4 209.2C96.1 208.9 95.6 208.6 95.2 208.4C94.7 208.2 94.2 208.1 93.6 208.1C93 208.1 92.5 208.2 92 208.4C91.5 208.6 91.1 208.9 90.8 209.2C90.5 209.5 90.2 210 90 210.5C89.8 211 89.7 211.5 89.7 212H97.7C97.7 211.5 97.5 210.9 97.4 210.5C97 210 96.8 209.6 96.4 209.2Z" fill="black"/>
<path d="M105.9 209.3C106.5 208.2 107.2 207.3 108 206.8C108.8 206.3 109.8 206 111.1 206V208.4C110.2 208.4 109.4 208.5 108.8 208.8C108.2 209 107.6 209.4 107.2 209.9C106.8 210.4 106.5 211 106.3 211.7C106.1 212.4 106 213.2 106 214.1V220.3H103.7V206.4H105.9V209.3Z" fill="black"/>
<path d="M119.8 220.6C118.7 220.6 117.7 220.4 116.9 220.1C116.1 219.8 115.4 219.2 114.8 218.6C114.2 218 113.8 217.2 113.6 216.3C113.3 215.4 113.1 214.4 113.1 213.4C113.1 212.3 113.3 211.4 113.6 210.5C113.9 209.6 114.4 208.9 115 208.2C115.6 207.6 116.3 207 117.1 206.7C117.9 206.4 118.8 206.2 119.7 206.2C120.9 206.2 122 206.5 122.8 207C123.6 207.5 124.3 208.2 124.8 208.9C125.3 209.7 125.6 210.5 125.8 211.5C126 212.4 126 213.3 126 214.2H115.6C115.6 214.8 115.7 215.4 115.8 215.9C116 216.4 116.2 216.9 116.6 217.4C116.9 217.8 117.4 218.2 118 218.4C118.6 218.6 119.2 218.8 120 218.8C121 218.8 121.8 218.6 122.4 218.1C123 217.6 123.4 217 123.6 216.1H125.9C125.6 217.7 124.9 218.8 123.9 219.6C122.6 220.2 121.3 220.6 119.8 220.6ZM122.3 209.2C122 208.9 121.5 208.6 121.1 208.4C120.6 208.2 120.1 208.1 119.5 208.1C118.9 208.1 118.4 208.2 117.9 208.4C117.4 208.6 117 208.9 116.7 209.2C116.4 209.5 116.1 210 115.9 210.5C115.7 211 115.6 211.5 115.6 212H123.6C123.6 211.5 123.4 210.9 123.3 210.5C122.9 210 122.7 209.6 122.3 209.2Z" fill="black"/>
<path d="M139.8 218.4C139.4 219.2 138.8 219.7 138 220.1C137.2 220.4 136.3 220.6 135.3 220.6C134.2 220.6 133.3 220.4 132.5 220C131.7 219.6 131 219.1 130.5 218.4C130 217.7 129.6 217 129.3 216.1C129 215.2 128.9 214.3 128.9 213.3C128.9 212.3 129 211.4 129.3 210.5C129.5 209.6 129.9 208.9 130.5 208.2C131 207.5 131.7 207 132.5 206.6C133.3 206.2 134.2 206 135.3 206C135.6 206 136.1 206 136.5 206.1C136.9 206.2 137.3 206.3 137.7 206.5C138.1 206.7 138.5 206.9 138.9 207.2C139.2 207.5 139.6 207.8 139.8 208.2H139.9V201H142.2V220.2H139.9V218.4H139.8ZM132.4 217C132.7 217.5 133.2 217.9 133.7 218.2C134.2 218.5 134.9 218.6 135.6 218.6C136.4 218.6 137 218.4 137.6 218.1C138.1 217.8 138.6 217.4 138.9 216.9C139.2 216.4 139.5 215.8 139.7 215.2C139.8 214.6 139.9 213.9 139.9 213.3C139.9 212.6 139.8 212 139.7 211.3C139.5 210.7 139.3 210.1 138.9 209.6C138.6 209.1 138.1 208.7 137.5 208.4C136.9 208.1 136.3 207.9 135.5 207.9C134.7 207.9 134.1 208.1 133.5 208.4C133 208.7 132.5 209.1 132.2 209.6C131.9 210.1 131.6 210.7 131.5 211.3C131.4 211.9 131.3 212.6 131.3 213.3C131.3 213.9 131.4 214.6 131.6 215.2C131.8 215.9 132.1 216.5 132.4 217Z" fill="black"/>
<path d="M154.4 206.3H156.7V204.2C156.7 203.1 157 202.2 157.7 201.6C158.3 201 159.3 200.7 160.6 200.7C160.8 200.7 161.1 200.7 161.4 200.8C161.7 200.8 161.9 200.9 162.1 201V203C161.9 202.9 161.7 202.9 161.5 202.9C161.3 202.9 161 202.8 160.9 202.8C160.3 202.8 159.9 202.9 159.6 203.1C159.3 203.3 159.1 203.7 159.1 204.3V206.2H161.8V208.2H159V220.1H156.7V208.2H154.4V206.3Z" fill="black"/>
<path d="M165.7 208.2C166.3 207.5 167 207 167.8 206.6C168.6 206.2 169.6 206 170.7 206C171.8 206 172.8 206.2 173.6 206.6C174.4 207 175.2 207.5 175.7 208.2C176.3 208.8 176.7 209.6 177 210.5C177.3 211.4 177.4 212.3 177.4 213.4C177.4 214.4 177.3 215.4 177 216.3C176.7 217.2 176.3 217.9 175.7 218.6C175.1 219.2 174.4 219.8 173.6 220.1C172.8 220.4 171.8 220.6 170.7 220.6C169.6 220.6 168.6 220.4 167.8 220.1C167 219.7 166.2 219.2 165.7 218.6C165.1 217.9 164.7 217.2 164.4 216.3C164.1 215.4 164 214.5 164 213.4C164 212.4 164.1 211.4 164.4 210.5C164.7 209.6 165.1 208.8 165.7 208.2ZM167.6 217.2C168 217.6 168.5 218 169 218.2C169.5 218.4 170.1 218.5 170.7 218.5C171.3 218.5 171.9 218.4 172.4 218.2C172.9 218 173.4 217.6 173.8 217.2C174.2 216.7 174.5 216.2 174.7 215.6C174.9 214.9 175 214.2 175 213.3C175 212.5 174.9 211.7 174.7 211.1C174.5 210.4 174.2 209.9 173.8 209.4C173.4 208.9 172.9 208.6 172.4 208.4C171.9 208.2 171.3 208.1 170.7 208.1C170.1 208.1 169.5 208.2 169 208.4C168.5 208.6 168 209 167.6 209.4C167.2 209.9 166.9 210.4 166.7 211.1C166.5 211.7 166.4 212.5 166.4 213.3C166.4 214.1 166.5 214.9 166.7 215.6C166.9 216.2 167.2 216.8 167.6 217.2Z" fill="black"/>
<path d="M183.5 209.3C184.1 208.2 184.8 207.3 185.6 206.8C186.4 206.3 187.4 206 188.7 206V208.4C187.8 208.4 187 208.5 186.4 208.8C185.8 209 185.2 209.4 184.8 209.9C184.4 210.4 184.1 211 183.9 211.7C183.7 212.4 183.6 213.2 183.6 214.1V220.3H181.3V206.4H183.5V209.3Z" fill="black"/>
<path d="M201.6 220.2H199.3V201H201.6V220.2Z" fill="#E41E2D"/>
<path d="M206.3 201H208.6V203.8H206.3V201ZM208.6 220.2H206.3V206.3H208.6V220.2Z" fill="#E41E2D"/>
<path d="M211.9 206.3H214.2V204.2C214.2 203.1 214.5 202.2 215.2 201.6C215.8 201 216.8 200.7 218.1 200.7C218.3 200.7 218.6 200.7 218.9 200.8C219.2 200.8 219.4 200.9 219.6 201V203C219.4 202.9 219.2 202.9 219 202.9C218.8 202.9 218.5 202.8 218.4 202.8C217.8 202.8 217.4 202.9 217.1 203.1C216.8 203.3 216.6 203.7 216.6 204.3V206.2H219.3V208.2H216.6V220.1H214.3V208.2H212V206.3H211.9Z" fill="#E41E2D"/>
<path d="M228.1 220.6C227 220.6 226 220.4 225.2 220.1C224.4 219.8 223.7 219.2 223.1 218.6C222.5 218 222.1 217.2 221.9 216.3C221.6 215.4 221.4 214.4 221.4 213.4C221.4 212.3 221.6 211.4 221.9 210.5C222.2 209.6 222.7 208.9 223.3 208.2C223.9 207.6 224.6 207 225.4 206.7C226.2 206.4 227.1 206.2 228 206.2C229.2 206.2 230.3 206.5 231.1 207C231.9 207.5 232.6 208.2 233.1 208.9C233.6 209.7 233.9 210.5 234.1 211.5C234.3 212.4 234.3 213.3 234.3 214.2H223.9C223.9 214.8 224 215.4 224.1 215.9C224.3 216.4 224.5 216.9 224.9 217.4C225.2 217.8 225.7 218.2 226.3 218.4C226.9 218.6 227.5 218.8 228.3 218.8C229.3 218.8 230.1 218.6 230.7 218.1C231.3 217.6 231.7 217 231.9 216.1H234.2C233.9 217.7 233.2 218.8 232.2 219.6C231 220.2 229.7 220.6 228.1 220.6ZM230.6 209.2C230.3 208.9 229.8 208.6 229.4 208.4C228.9 208.2 228.4 208.1 227.8 208.1C227.2 208.1 226.7 208.2 226.2 208.4C225.7 208.6 225.3 208.9 225 209.2C224.7 209.5 224.4 210 224.2 210.5C224 211 223.9 211.5 223.9 212H231.9C231.9 211.5 231.7 210.9 231.6 210.5C231.3 210 231 209.6 230.6 209.2Z" fill="#E41E2D"/>
</svg>
